<svg xmlns="http://www.w3.org/2000/svg" viewBox="0 0 340 240" aria-hidden="true" focusable="false" font-family="inherit">
<rect x="20" y="20" width="200" height="200" rx="8" style="fill:var(--sunk);stroke:var(--line2)"/>
<line x1="120" y1="26" x2="120" y2="214" style="stroke:var(--line2)"/><line x1="26" y1="120" x2="214" y2="120" style="stroke:var(--line2)"/>
<circle cx="100" cy="96" r="4" style="fill:var(--dim)"/><circle cx="134" cy="104" r="4" style="fill:var(--dim)"/><circle cx="124" cy="140" r="4" style="fill:var(--dim)"/><circle cx="92" cy="130" r="4" style="fill:var(--dim)"/><circle cx="140" cy="84" r="4" style="fill:var(--dim)"/><circle cx="108" cy="104" r="4" style="fill:var(--dim)"/><circle cx="132" cy="128" r="4" style="fill:var(--dim)"/><circle cx="112" cy="150" r="4" style="fill:var(--dim)"/><circle cx="82" cy="112" r="4" style="fill:var(--dim)"/><circle cx="148" cy="112" r="4" style="fill:var(--dim)"/>
<circle cx="116" cy="114" r="30" fill="none" style="stroke:var(--amber)" stroke-width="2" stroke-dasharray="5 4"/>
<line x1="110" y1="114" x2="122" y2="114" stroke="currentColor" stroke-width="1.5"/><line x1="116" y1="108" x2="116" y2="120" stroke="currentColor" stroke-width="1.5"/>
<text x="236" y="58" style="fill:var(--amber)" font-size="11">mean radius</text>
<line x1="236" y1="110" x2="320" y2="110" style="stroke:var(--line2)" stroke-width="2"/>
<line x1="258" y1="110" x2="300" y2="110" style="stroke:var(--amber)" stroke-width="8" stroke-linecap="round"/>
<line x1="278" y1="100" x2="278" y2="120" stroke="currentColor" stroke-width="2"/>
<text x="236" y="140" style="fill:var(--dim)" font-size="11">how sure it is</text>
</svg>
