<svg xmlns="http://www.w3.org/2000/svg" viewBox="0 0 180 180" aria-hidden="true" focusable="false" font-family="inherit">
<rect width="180" height="180" rx="10" style="fill:var(--panel)"/>
<g transform="translate(90 90) rotate(14) skewX(-6) translate(-64 -64)"><rect x="-16" y="-16" width="160" height="160" style="fill:var(--panel)"/><rect width="128" height="128" fill="currentColor"/><rect x="32" y="16" width="16" height="16" style="fill:var(--panel)"/><rect x="80" y="16" width="16" height="16" style="fill:var(--panel)"/><rect x="96" y="16" width="16" height="16" style="fill:var(--panel)"/><rect x="16" y="32" width="16" height="16" style="fill:var(--panel)"/><rect x="64" y="32" width="16" height="16" style="fill:var(--panel)"/><rect x="96" y="32" width="16" height="16" style="fill:var(--panel)"/><rect x="48" y="48" width="16" height="16" style="fill:var(--panel)"/><rect x="64" y="48" width="16" height="16" style="fill:var(--panel)"/><rect x="80" y="48" width="16" height="16" style="fill:var(--panel)"/><rect x="16" y="64" width="16" height="16" style="fill:var(--panel)"/><rect x="32" y="64" width="16" height="16" style="fill:var(--panel)"/><rect x="80" y="64" width="16" height="16" style="fill:var(--panel)"/><rect x="32" y="80" width="16" height="16" style="fill:var(--panel)"/><rect x="48" y="80" width="16" height="16" style="fill:var(--panel)"/><rect x="96" y="80" width="16" height="16" style="fill:var(--panel)"/><rect x="16" y="96" width="16" height="16" style="fill:var(--panel)"/><rect x="48" y="96" width="16" height="16" style="fill:var(--panel)"/><rect x="80" y="96" width="16" height="16" style="fill:var(--panel)"/></g>
</svg>
